<svg width="42" height="42" viewBox="0 0 42 42" fill="none" xmlns="http://www.w3.org/2000/svg">
<g id="add_notes">
<mask id="mask0_137_402" style="mask-type:alpha" maskUnits="userSpaceOnUse" x="0" y="0" width="42" height="42">
<rect id="Bounding box" width="42" height="42" fill="#D9D9D9"/>
</mask>
<g mask="url(#mask0_137_402)">
<path id="add_notes_2" d="M10.1499 34.475C9.42074 34.475 8.80094 34.2198 8.29053 33.7094C7.78011 33.199 7.5249 32.5792 7.5249 31.85V10.15C7.5249 9.42086 7.78011 8.80107 8.29053 8.29065C8.80094 7.78023 9.42074 7.52502 10.1499 7.52502H31.8499C32.5791 7.52502 33.1989 7.78023 33.7093 8.29065C34.2197 8.80107 34.4749 9.42086 34.4749 10.15V20.1688C34.2416 20.1104 34.0301 20.0667 33.8405 20.0375C33.6509 20.0084 33.4541 19.9646 33.2499 19.9063V10.15C33.2499 9.80002 33.1041 9.47919 32.8124 9.18752C32.5207 8.89586 32.1999 8.75002 31.8499 8.75002H10.1499C9.7999 8.75002 9.47907 8.89586 9.1874 9.18752C8.89574 9.47919 8.7499 9.80002 8.7499 10.15V31.85C8.7499 32.2 8.89574 32.5209 9.1874 32.8125C9.47907 33.1042 9.7999 33.25 10.1499 33.25H19.8624C19.8916 33.4834 19.9207 33.6948 19.9499 33.8844C19.9791 34.074 20.0228 34.2709 20.0812 34.475H10.1499ZM8.7499 33.25V8.75002V19.9063V19.775V33.25ZM13.3874 28.0875H20.2562C20.3145 27.8834 20.3874 27.6865 20.4749 27.4969C20.5624 27.3073 20.6499 27.0959 20.7374 26.8625H13.3874V28.0875ZM13.3874 21.6125H25.1562C25.6228 21.35 26.0457 21.124 26.4249 20.9344C26.8041 20.7448 27.2124 20.5771 27.6499 20.4313V20.3875H13.3874V21.6125ZM13.3874 15.1375H28.6124V13.9125H13.3874V15.1375ZM31.4999 38.2375C29.6916 38.2375 28.1603 37.6104 26.9062 36.3563C25.652 35.1021 25.0249 33.5709 25.0249 31.7625C25.0249 29.9542 25.652 28.4229 26.9062 27.1688C28.1603 25.9146 29.6916 25.2875 31.4999 25.2875C33.3082 25.2875 34.8395 25.9146 36.0937 27.1688C37.3478 28.4229 37.9749 29.9542 37.9749 31.7625C37.9749 33.5709 37.3478 35.1021 36.0937 36.3563C34.8395 37.6104 33.3082 38.2375 31.4999 38.2375ZM30.8874 36.75H32.1124V32.375H36.4874V31.15H32.1124V26.775H30.8874V31.15H26.5124V32.375H30.8874V36.75Z" fill="#AA171A"/>
</g>
</g>
</svg>
