<svg width="42" height="42" viewBox="0 0 42 42" fill="none" xmlns="http://www.w3.org/2000/svg">
<g id="front_loader">
<mask id="mask0_137_414" style="mask-type:alpha" maskUnits="userSpaceOnUse" x="0" y="0" width="42" height="42">
<rect id="Bounding box" width="42" height="42" fill="#D9D9D9"/>
</mask>
<g mask="url(#mask0_137_414)">
<path id="front_loader_2" d="M8.09395 33.425C6.95645 33.425 5.98665 33.0239 5.18457 32.2219C4.38249 31.4198 3.98145 30.45 3.98145 29.3125V20.2125C3.98145 19.4833 4.23665 18.8635 4.74707 18.3531C5.25749 17.8427 5.87728 17.5875 6.60645 17.5875H15.8377V8.88123H22.4439C23.5814 8.88123 24.5512 9.28227 25.3533 10.0844C26.1554 10.8864 26.5564 11.8562 26.5564 12.9937V20.3875H29.0064V17.9375C29.0064 17.6166 29.0648 17.3104 29.1814 17.0187C29.2981 16.7271 29.4731 16.4646 29.7064 16.2312L31.9377 14L38.1939 25.8125H31.3689C30.7273 25.8125 30.1804 25.5864 29.7283 25.1344C29.2762 24.6823 29.0356 24.1208 29.0064 23.45V21.6125H26.5564V25.7687C27.1981 26.1479 27.7012 26.6437 28.0658 27.2562C28.4304 27.8687 28.6127 28.5541 28.6127 29.3125C28.6127 30.45 28.2117 31.4198 27.4096 32.2219C26.6075 33.0239 25.6377 33.425 24.5002 33.425C23.4794 33.425 22.5825 33.1041 21.8096 32.4625C21.0367 31.8208 20.5773 30.9896 20.4314 29.9687H12.1627C12.0169 30.9896 11.5575 31.8208 10.7846 32.4625C10.0117 33.1041 9.11478 33.425 8.09395 33.425ZM8.09395 32.2C8.88145 32.2 9.55957 31.9156 10.1283 31.3469C10.6971 30.7781 10.9814 30.1 10.9814 29.3125C10.9814 28.525 10.6971 27.8469 10.1283 27.2781C9.55957 26.7094 8.88145 26.425 8.09395 26.425C7.30645 26.425 6.62832 26.7094 6.05957 27.2781C5.49082 27.8469 5.20645 28.525 5.20645 29.3125C5.20645 30.1 5.49082 30.7781 6.05957 31.3469C6.62832 31.9156 7.30645 32.2 8.09395 32.2ZM24.5002 32.2C25.2877 32.2 25.9658 31.9156 26.5346 31.3469C27.1033 30.7781 27.3877 30.1 27.3877 29.3125C27.3877 28.525 27.1033 27.8469 26.5346 27.2781C25.9658 26.7094 25.2877 26.425 24.5002 26.425C23.7127 26.425 23.0346 26.7094 22.4658 27.2781C21.8971 27.8469 21.6127 28.525 21.6127 29.3125C21.6127 30.1 21.8971 30.7781 22.4658 31.3469C23.0346 31.9156 23.7127 32.2 24.5002 32.2ZM15.8377 28.7V18.8125H6.60645C6.19811 18.8125 5.8627 18.9437 5.6002 19.2062C5.3377 19.4687 5.20645 19.8041 5.20645 20.2125V26.425C5.58561 26.0166 6.02311 25.7104 6.51895 25.5062C7.01478 25.3021 7.53978 25.2 8.09395 25.2C9.11478 25.2 10.0044 25.5281 10.7627 26.1844C11.521 26.8406 11.9731 27.6791 12.1189 28.7H15.8377ZM17.0627 28.7H20.4314C20.5773 27.6791 21.0367 26.8406 21.8096 26.1844C22.5825 25.5281 23.4794 25.2 24.5002 25.2C24.646 25.2 24.7846 25.2073 24.9158 25.2219C25.0471 25.2364 25.1856 25.2583 25.3314 25.2875V21.6125H17.0627V28.7ZM36.1814 24.5875L31.6314 16.0125L30.5814 17.1062C30.4648 17.2229 30.3773 17.3541 30.3189 17.5C30.2606 17.6458 30.2314 17.7916 30.2314 17.9375V23.45C30.2606 23.7708 30.3773 24.0406 30.5814 24.2594C30.7856 24.4781 31.0481 24.5875 31.3689 24.5875H36.1814ZM17.0627 20.3875H25.3314V12.9937C25.3314 12.2062 25.0471 11.5281 24.4783 10.9594C23.9096 10.3906 23.2314 10.1062 22.4439 10.1062H17.0627V20.3875ZM15.8377 28.7V25.2V26.425V18.8125V28.7ZM17.0627 28.7V21.6125V25.2875V25.2V28.7Z" fill="#AA171A"/>
</g>
</g>
</svg>
