<svg width="42" height="42" viewBox="0 0 42 42" fill="none" xmlns="http://www.w3.org/2000/svg">
<g id="handyman">
<mask id="mask0_137_426" style="mask-type:alpha" maskUnits="userSpaceOnUse" x="0" y="0" width="42" height="42">
<rect id="Bounding box" width="42" height="42" fill="#D9D9D9"/>
</mask>
<g mask="url(#mask0_137_426)">
<path id="handyman_2" d="M32.1123 36.1813C31.9373 36.1813 31.7769 36.1521 31.6311 36.0938C31.4852 36.0354 31.3394 35.9334 31.1936 35.7875L22.5311 27.1688C22.3852 27.0229 22.2831 26.8771 22.2248 26.7313C22.1665 26.5854 22.1373 26.425 22.1373 26.25C22.1373 26.075 22.1665 25.9146 22.2248 25.7688C22.2831 25.6229 22.3852 25.4771 22.5311 25.3313L25.1998 22.6625C25.3456 22.5167 25.4915 22.4146 25.6373 22.3563C25.7831 22.2979 25.9436 22.2688 26.1186 22.2688C26.2936 22.2688 26.454 22.2979 26.5998 22.3563C26.7456 22.4146 26.8915 22.5167 27.0373 22.6625L35.6998 31.325C35.8456 31.4709 35.9477 31.6167 36.0061 31.7625C36.0644 31.9084 36.0936 32.0688 36.0936 32.2438C36.0936 32.4188 36.0644 32.5792 36.0061 32.725C35.9477 32.8709 35.8456 33.0167 35.6998 33.1625L33.0311 35.7875C32.8852 35.9334 32.7394 36.0354 32.5936 36.0938C32.4477 36.1521 32.2873 36.1813 32.1123 36.1813ZM32.1123 35.0438L34.9123 32.2438L26.1186 23.45L23.3186 26.25L32.1123 35.0438ZM9.84355 36.1813C9.66855 36.1813 9.50814 36.1521 9.3623 36.0938C9.21647 36.0354 9.07064 35.9334 8.9248 35.7875L6.25605 33.1625C6.11022 33.0167 6.00814 32.8709 5.9498 32.725C5.89147 32.5792 5.8623 32.4188 5.8623 32.2438C5.8623 32.0688 5.89147 31.9011 5.9498 31.7407C6.00814 31.5802 6.11022 31.4271 6.25605 31.2813L15.1811 22.3563H18.8123L20.1248 21.0438L12.6436 13.5625H10.1498L5.99355 9.40627L9.3623 6.03752L13.5186 10.1938V12.6875L20.9998 20.1688L26.3373 14.8313L22.7061 11.2L24.5436 9.36252H20.8686L20.2998 8.83752L24.8936 4.24377L25.4186 4.76877V8.48752L27.2561 6.65002L34.4311 13.7375C34.8394 14.1167 35.1383 14.5542 35.3279 15.05C35.5175 15.5459 35.6123 16.0709 35.6123 16.625C35.6123 16.975 35.5686 17.3177 35.4811 17.6531C35.3936 17.9886 35.2623 18.3167 35.0873 18.6375L31.5436 15.0938L29.0498 17.5875L27.1686 15.7063L19.6436 23.2313V26.95L10.7623 35.7875C10.6165 35.9334 10.4706 36.0354 10.3248 36.0938C10.179 36.1521 10.0186 36.1813 9.84355 36.1813ZM9.84355 35L18.8123 26.0313V23.2313H16.0123L7.04355 32.2L9.84355 35Z" fill="#AA171A"/>
</g>
</g>
</svg>
