<svg width="42" height="42" viewBox="0 0 42 42" fill="none" xmlns="http://www.w3.org/2000/svg">
<g id="lab_research">
<mask id="mask0_137_396" style="mask-type:alpha" maskUnits="userSpaceOnUse" x="0" y="0" width="42" height="42">
<rect id="Bounding box" width="42" height="42" fill="#D9D9D9"/>
</mask>
<g mask="url(#mask0_137_396)">
<path id="lab_research_2" d="M13.9999 34.9563C12.0874 34.9563 10.4572 34.2823 9.10931 32.9344C7.76137 31.5864 7.0874 29.9562 7.0874 28.0438V12.6C6.35824 12.6 5.73844 12.343 5.22803 11.8289C4.71761 11.3149 4.4624 10.6969 4.4624 9.97502V7.96252C4.4624 7.24065 4.71943 6.62268 5.2335 6.10862C5.74756 5.59456 6.36553 5.33752 7.0874 5.33752H20.9124C21.6343 5.33752 22.2522 5.59456 22.7663 6.10862C23.2804 6.62268 23.5374 7.24065 23.5374 7.96252V9.97502C23.5374 10.6969 23.2804 11.3149 22.7663 11.8289C22.2522 12.343 21.6343 12.6 20.9124 12.6V21.7875C20.6791 22.05 20.4603 22.3052 20.2562 22.5532C20.052 22.8011 19.8624 23.0854 19.6874 23.4063H15.1374V22.1813H19.6874V18.1563H15.1374V16.9313H19.6874V12.6H8.3124V28.0438C8.3124 29.6236 8.86365 30.9665 9.96615 32.0724C11.0687 33.1783 12.4074 33.7313 13.9824 33.7313C14.9274 33.7313 15.7864 33.5271 16.5593 33.1188C17.3322 32.7104 17.9812 32.1709 18.5062 31.5C18.5728 31.7396 18.6478 31.9672 18.7312 32.1828C18.8145 32.3985 18.8999 32.6229 18.9874 32.8563C18.3457 33.5271 17.5996 34.0448 16.7491 34.4094C15.8986 34.774 14.9822 34.9563 13.9999 34.9563ZM15.1374 28.6563V27.4313H18.2874C18.2582 27.6354 18.2364 27.8323 18.2218 28.0219C18.2072 28.2115 18.1999 28.4229 18.1999 28.6563H15.1374ZM7.0874 11.375H20.9124C21.3207 11.375 21.6562 11.2438 21.9187 10.9813C22.1812 10.7188 22.3124 10.3834 22.3124 9.97502V7.96252C22.3124 7.55419 22.1812 7.21877 21.9187 6.95627C21.6562 6.69377 21.3207 6.56252 20.9124 6.56252H7.0874C6.67907 6.56252 6.34365 6.69377 6.08115 6.95627C5.81865 7.21877 5.6874 7.55419 5.6874 7.96252V9.97502C5.6874 10.3834 5.81865 10.7188 6.08115 10.9813C6.34365 11.2438 6.67907 11.375 7.0874 11.375ZM28.8749 33.95C30.2749 33.95 31.4707 33.4542 32.4624 32.4625C33.4541 31.4709 33.9499 30.275 33.9499 28.875C33.9499 27.475 33.4541 26.2792 32.4624 25.2875C31.4707 24.2959 30.2749 23.8 28.8749 23.8C27.4749 23.8 26.2791 24.2959 25.2874 25.2875C24.2957 26.2792 23.7999 27.475 23.7999 28.875C23.7999 30.275 24.2957 31.4709 25.2874 32.4625C26.2791 33.4542 27.4749 33.95 28.8749 33.95ZM37.7999 38.6313L32.8999 33.7313C32.3166 34.1979 31.6844 34.5552 31.0033 34.8032C30.3222 35.0511 29.6127 35.175 28.8749 35.175C27.1249 35.175 25.6374 34.5625 24.4124 33.3375C23.1874 32.1125 22.5749 30.625 22.5749 28.875C22.5749 27.125 23.1874 25.6375 24.4124 24.4125C25.6374 23.1875 27.1249 22.575 28.8749 22.575C30.6249 22.575 32.1124 23.1875 33.3374 24.4125C34.5624 25.6375 35.1749 27.125 35.1749 28.875C35.1749 29.6129 35.0509 30.3223 34.803 31.0034C34.5551 31.6845 34.1978 32.3167 33.7312 32.9L38.6312 37.8L37.7999 38.6313Z" fill="#AA171A"/>
</g>
</g>
</svg>
