<svg width="42" height="42" viewBox="0 0 42 42" fill="none" xmlns="http://www.w3.org/2000/svg">
<g id="pace">
<mask id="mask0_137_408" style="mask-type:alpha" maskUnits="userSpaceOnUse" x="0" y="0" width="42" height="42">
<rect id="Bounding box" width="42" height="42" fill="#D9D9D9"/>
</mask>
<g mask="url(#mask0_137_408)">
<path id="pace_2" d="M20.9999 36.225C18.8938 36.225 16.9145 35.8256 15.0622 35.0267C13.2098 34.2277 11.5985 33.1435 10.2282 31.7739C8.85796 30.4044 7.77318 28.7939 6.97387 26.9424C6.17456 25.091 5.7749 23.1127 5.7749 21.0076C5.7749 18.9026 6.17435 16.9231 6.97326 15.0694C7.77219 13.2156 8.85643 11.603 10.226 10.2317C11.5956 8.86045 13.2061 7.77484 15.0575 6.97491C16.909 6.17499 18.8872 5.77502 20.9923 5.77502C23.0974 5.77502 25.0768 6.17468 26.9306 6.97399C28.7844 7.77331 30.3969 8.85809 31.7682 10.2283C33.1395 11.5986 34.2251 13.2099 35.025 15.0623C35.8249 16.9146 36.2249 18.8939 36.2249 21C36.2249 21.7875 36.1666 22.5604 36.0499 23.3188C35.9332 24.0771 35.7582 24.8209 35.5249 25.55C35.3499 25.4334 35.1749 25.324 34.9999 25.2219C34.8249 25.1198 34.6353 25.0396 34.4312 24.9813C34.6353 24.3396 34.7812 23.6906 34.8687 23.0344C34.9562 22.3781 34.9999 21.7 34.9999 21C34.9999 17.0917 33.6437 13.7813 30.9312 11.0688C28.2187 8.35627 24.9082 7.00002 20.9999 7.00002C17.0916 7.00002 13.7812 8.35627 11.0687 11.0688C8.35615 13.7813 6.9999 17.0917 6.9999 21C6.9999 24.9084 8.35615 28.2188 11.0687 30.9313C13.7812 33.6438 17.0916 35 20.9999 35C22.6041 35 24.1202 34.7506 25.5484 34.2517C26.9766 33.7528 28.2896 33.0543 29.4874 32.1563C29.6332 32.3021 29.7718 32.4479 29.903 32.5938C30.0343 32.7396 30.1874 32.8709 30.3624 32.9875C29.0499 34.0084 27.6072 34.8032 26.0343 35.3719C24.4615 35.9407 22.7833 36.225 20.9999 36.225ZM33.0336 30.3625C32.7403 30.3625 32.4916 30.2613 32.2874 30.0587C32.0832 29.8562 31.9812 29.6083 31.9812 29.315C31.9812 29.0217 32.0824 28.7729 32.285 28.5688C32.4875 28.3646 32.7354 28.2625 33.0287 28.2625C33.322 28.2625 33.5707 28.3638 33.7749 28.5663C33.9791 28.7688 34.0812 29.0167 34.0812 29.3101C34.0812 29.6034 33.9799 29.8521 33.7774 30.0563C33.5749 30.2604 33.3269 30.3625 33.0336 30.3625ZM27.5624 28.4375L20.3874 21.2616V12.25H21.6124V20.7375L28.4374 27.5625L27.5624 28.4375Z" fill="#AA171A"/>
</g>
</g>
</svg>
