<svg width="41" height="53" viewBox="0 0 41 53" fill="none" xmlns="http://www.w3.org/2000/svg">
<path d="M39.7276 24.9211L18.4546 1.28708C18.2329 1.04015 17.9617 0.842631 17.6587 0.707386C17.3556 0.57214 17.0275 0.502188 16.6956 0.502079H2.51362C2.05657 0.501274 1.60912 0.633088 1.2255 0.881534C0.841882 1.12998 0.538581 1.48439 0.352379 1.90178C0.166176 2.31918 0.105062 2.78163 0.17646 3.23307C0.247859 3.6845 0.448693 4.10552 0.754616 4.44508L20.6046 26.5031L0.754616 48.5561C0.449205 48.8961 0.248822 49.3173 0.177681 49.7688C0.10654 50.2203 0.167688 50.6827 0.353737 51.1002C0.539786 51.5177 0.84277 51.8723 1.22607 52.1213C1.60936 52.3702 2.05657 52.5028 2.51362 52.5031H16.6956C17.0268 52.5015 17.354 52.4313 17.6567 52.2971C17.9594 52.1628 18.2311 51.9674 18.4546 51.7231L39.7276 28.0871C40.1188 27.6526 40.3352 27.0887 40.3352 26.5041C40.3352 25.9195 40.1188 25.3556 39.7276 24.9211Z" fill="#4E4E4E"/>
</svg>
